<svg width="400" height="240" viewBox="0 0 400 240" xmlns="http://www.w3.org/2000/svg">
  <defs>
    <linearGradient id="bg" x1="0" y1="0" x2="1" y2="1">
      <stop offset="0%" stop-color="#e0f2fe"/>
      <stop offset="100%" stop-color="#bae6fd"/>
    </linearGradient>
  </defs>
  <rect width="400" height="240" fill="url(#bg)" rx="16" />
  <rect x="60" y="40" width="280" height="160" rx="6" fill="#ffffff" stroke="#38bdf8" stroke-width="3"/>
  <rect x="72" y="52" width="120" height="16" rx="3" fill="#e5e7eb"/>
  <rect x="72" y="78" width="160" height="10" rx="2" fill="#e5e7eb"/>
  <rect x="72" y="96" width="110" height="10" rx="2" fill="#e5e7eb"/>
  <rect x="72" y="114" width="140" height="10" rx="2" fill="#e5e7eb"/>
  <rect x="72" y="132" width="90" height="10" rx="2" fill="#e5e7eb"/>
  <rect x="72" y="150" width="60" height="10" rx="2" fill="#e5e7eb"/>
  <rect x="240" y="52" width="84" height="132" rx="4" fill="#f9fafb" stroke="#d1d5db" stroke-width="2"/>
  <rect x="248" y="60" width="68" height="40" rx="4" fill="#e5e7eb"/>
  <rect x="248" y="108" width="54" height="8" rx="2" fill="#e5e7eb"/>
  <rect x="248" y="122" width="60" height="8" rx="2" fill="#e5e7eb"/>
  <rect x="248" y="136" width="48" height="8" rx="2" fill="#e5e7eb"/>
  <rect x="248" y="150" width="40" height="8" rx="2" fill="#e5e7eb"/>
  <circle cx="40" cy="40" r="10" fill="#22c55e"/>
  <path d="M35 40l3 3 7-7" fill="none" stroke="#ecfdf5" stroke-width="2" stroke-linecap="round" stroke-linejoin="round"/>
  <text x="60" y="30" fill="#0f172a" font-size="14" font-family="system-ui, -apple-system, BlinkMacSystemFont">
    Good book title page photo
  </text>
</svg>

